<?xml version="1.0" encoding="UTF-8"?><svg id="Calque_2" xmlns="http://www.w3.org/2000/svg" viewBox="0 0 190.44 181.19"><defs><style>.cls-1{fill:#06004d;}.cls-2{fill:#ff8d54;}.cls-3{fill:#401ecb;}.cls-4{fill:#7996ec;}</style></defs><g id="Calque_2-2"><g id="Calque_2-2"><g><path class="cls-4" d="m78.07,126.16c-2.38-3.78-4.2-7.87-6-11.96-1.75-3.99-3.45-8-6.03-11.54-1.88-2.59-4.22-4.95-7.04-6.48-.95-.18-1.87-.57-2.7-1.16-.42-.3-.18-1.05.37-.88.91.29,1.8.66,2.64,1.1,1.9.32,3.86-.33,5.32-1.84,2.11-2.17,2.45-5.46.56-7.89-.23-.29-.13-.85.34-.82,4.54.29,7.2-6.57,3.68-9.43-.42-.34.05-.88.47-.8,3.59.59,7.13-1.61,8.86-4.73-.12.01-.25-.03-.35-.15-2.78-3.41-7.01-5.43-11.41-5.4-.19,0-.43-.15-.46-.35l-1.52-9.88c-.05-.34.21-.71.59-.59,1.78.58,3.73.19,5.15-1-1.8-2.69-3.28-5.57-4.46-8.58-4.16-10.65-4.29-22.79-.25-33.48-4.65,3.89-7.47,9.82-7.48,15.9,0,.57-.77.63-.94.13-2.64-7.64-2.98-15.98-.99-23.8-2.55,1.02-4.84,2.67-6.66,4.73-3.63,4.09-5.34,9.7-4.23,15.09,1.13,5.44,4.76,10.26,9.77,12.69.38.18.27.78-.12.88-2.57.7-5.14,1.39-7.71,2.09,1.34,2.22,2.58,4.5,3.69,6.84,4.01,8.48,6.42,17.67,7.1,27.02.66-.95,1.3-1.91,1.96-2.86.27-.38.89-.26.9.24.02,3,.39,5.97,1.11,8.88.32,1.27.7,2.54,1.15,3.78.46,1.27,1.05,2.47,1.58,3.72.34.79-.1,1.94-.45,2.68-.41.88-1.06,1.66-1.83,2.25-1.6,1.23-3.67,1.56-5.56.82-1.09-.43-2.03-1.17-2.72-2.1-.09,2.78-.63,5.56-.38,8.35.01.2-.16.43-.35.46-2.39.47-4.78.95-7.16,1.42-.2.04-.45-.02-.54-.22-.85-1.86-1.58-3.77-2.14-5.73-1.96-6.85-2.07-14.19-.31-21.09-2.33-2.41-4.34-5.13-5.98-8.05-2.97-5.32-4.74-11.3-5.22-17.38-.43-5.54.24-11.17,2.08-16.42-.17.15-.35.29-.51.45-4.52,4.42-5.03,11.43-4.15,17.35,1.14,7.62,5.01,14.45,7.11,21.79,1.1,3.87,1.72,7.91,1.17,11.94-.27,2.02-.83,3.98-1.25,5.97-.43,1.98-.77,4.08-.32,6.09.6,2.69,2.56,4.61,5.14,5.45,2.47.8,5.14.83,7.71.87,4.97.07,11.05-.24,14.73,3.76.1.11.13.23.13.34.77.82,1.53,1.65,2.3,2.48.27.29.09.83-.34.82-7.08-.12-14.12,1.21-20.67,3.89-.21.08-.43-.06-.54-.22-1.46-2.11-3.05-4.12-4.76-6.02-6.05-6.68-13.62-11.96-22.01-15.27-.18-.07-.38-.24-.35-.46.21-1.69.63-3.32,1.3-4.89,1.86-4.43,5.39-8.11,9.73-10.14-1.28.37-2.54.8-3.78,1.3-6.6,2.7-12.42,7.31-16.54,13.14,3.18,1.41,6.3,2.96,9.34,4.65,11.11,6.19,21.18,14.23,29.68,23.69,1.82-1.17,3.71-2.23,5.66-3.16,3.64-1.72,7.47-3.03,11.42-3.84.49-.1.96-.19,1.45-.28.37-.07.94-.27,1.3-.17.33.1.69.52.91.77.26.29.49.6.69.94.82,1.35,1.06,2.99.7,4.52.01.15-.04.31-.24.39-.01,0-.04.02-.05.03-7.1,3.02-14.42,5.49-21.51,8.5-.21.09-.4.08-.58-.07-3.87-3.31-8.43-5.75-13.3-7.21-4.36-1.3-8.94-1.82-13.47-1.49-2.27.17-4.45.63-6.67,1.1-2.11.45-4.32.85-6.46.4-1.91-.4-3.59-1.61-4.45-3.36-.56-1.14-.8-2.41-.77-3.67-1.47,4.25-1.56,8.96,0,13.2,3.12-1.62,6.48-2.76,9.93-3.4,6.5-1.2,13.3-.7,19.57,1.35,6.06,1.99,11.64,5.43,15.95,10.16,1-1.8,2.25-3.47,3.71-4.93,5.71-5.74,14.39-8.45,22.31-6.56.38.09.42.48.25.73,2.16,2.67,2.89,6.34,1.86,9.64-.08.25-.33.4-.59.34-5.82-1.55-11.65-3.1-17.46-4.65-.22,1.61-.54,3.19-1,4.74-1.77,6.02-5.31,11.49-10.08,15.56,2.54,2.54,1.45,6.74.83,9.88-.34,1.69-.56,3.36-.45,5.09.11,1.74.52,3.48,1.15,5.1,1.26,3.25,3.51,6.16,6.44,8.06,5.57,3.64,13.23,3.36,18.67-.37-1.34.1-2.68.06-4.02-.14-6.95-1.05-13.25-6.16-15.29-12.94-.04-.15,0-.35.13-.47,1.53-1.41,2.89-2.99,4.05-4.73,4.06-6.12,5.58-13.86,3.89-21.04-.08-.36.23-.68.59-.59,6.31,1.58,12.94,1.63,19.26.15.02-.02.04-.05.07-.07.78-.54,1.57-1.08,2.35-1.63-2.5-2-4.45-4.6-6.18-7.33h.01Z"/><path class="cls-2" d="m112.15,59.26c2.44-.52,2.83-4.26.8-5.51-.04-.02-.05-.05-.08-.07-.04,0-.07-.01-.1-.03-1.3-.66-2.92-.04-3.8,1.02-.8.97-.83,2.3-.07,3.3.73.94,2.05,1.55,3.25,1.3Z"/><path class="cls-2" d="m83.1,55.4c-1.68-.1-3.1,1.24-3.51,2.81-.37,1.4.24,2.75,1.52,3.42,1.15.59,2.64.56,3.74-.14,2.47-1.58,1.01-5.84-1.74-6.08Z"/><path class="cls-3" d="m118.9,119.4c.89-1.49,1.71-3.01,2.49-4.56-2.67-.88-10.46-1.74-12.97-2.62-.58-.2-.33-1.13.26-.93,2.55.88,10.54,1.77,13.09,2.66.02,0,.04.02.06.03.88-1.77,1.74-3.54,2.64-5.29.68-1.32,1.38-2.64,2.11-3.95-3.84.95-12.75,3.2-15.88,3.97-.6.15-.85-.78-.26-.93,3.33-.82,13.23-3.32,16.57-4.14.07-.01.13-.01.19,0,2.43-4.26,5.21-8.32,8.78-11.63-2,.15-4.02-.63-5.43-2.06-1.52-1.55-2.12-3.67-1.69-5.76-.4-.59-.71-1.24-.92-1.91-4.29,1.71-12.33,5.47-16.42,7.06-.58.23-.82-.71-.26-.93,4.09-1.6,12.16-5.37,16.45-7.08-.27-1.55-.03-3.18.73-4.57-.74.19-1.52.25-2.29.18-.19.1-.42.05-.57-.07-1.98-.35-3.75-1.56-4.65-3.31-2.98,3.17-8.67,9.06-11.46,12.03-.43.46-1.1-.23-.68-.68,2.87-3.07,8.84-9.23,11.74-12.33-.04-.16-.09-.32-.13-.49-.41-1.98.1-4.07,1.33-5.63-2.11,0-4.1-1.55-4.84-3.52-.27.39-.57.75-.92,1.07-.58.53-1.25.93-1.96,1.19,0,.08,0,.18-.06.27-2.49,4.29-4.98,13.07-7.47,17.36-.31.54-1.14.05-.83-.49,2.39-4.12,4.79-12.38,7.18-16.83-1.42.21-2.89-.15-4.09-1.18-1.54-1.34-2.28-3.52-1.92-5.51-1.91.92-4.51.35-5.7-1.46-3.06,1.97-6.9,2.57-10.43,1.78.17.28.32.57.46.88,1.38,3.19.21,7.19-3.31,8.28-2.56.79-5.6-.09-7.3-2.12-.04.74-.2,1.48-.42,2.19,2.19,3.25,7.94,10.04,10.14,13.28.35.52-.49.99-.83.49-2.07-3.06-7.28-9.26-9.72-12.68-1.57,3.45-5.13,6.05-8.98,6.04.27.37.49.77.65,1.19,4.67,3.09,14.86,8.61,19.5,11.68.52.34.03,1.17-.49.83-4.38-2.9-13.72-8-18.67-11.15.41,3.34-1.91,7.2-5.33,7.58.64,1.05,1.02,2.22,1.02,3.48,0,.06,0,.11,0,.17h.03c4.29.68,12.75,1.3,17.04,1.98.61.1.35,1.02-.26.93-4.26-.68-12.6-1.28-16.92-1.97-.38,2.11-1.75,4-3.59,5.1-.86.52-1.8.82-2.74.93,5.49,3.67,8.53,9.84,11.19,15.84.04-.03.08-.05.14-.07,2.69-.71,10.65-1.42,13.34-2.13.6-.15.85.77.26.93-2.69.71-10.65,1.42-13.34,2.13h0c.36.82.71,1.63,1.07,2.42,1.16,2.61,2.36,5.21,3.75,7.71,2.33-2.47,7.91-8.19,10.2-10.62.43-.45,1.1.23.68.68-2.3,2.44-7.94,8.22-10.24,10.66-.05.05-.1.09-.16.11.62,1.08,1.27,2.14,1.98,3.17,1.24,1.82,2.62,3.63,4.29,5.08,1.58,1.37,3.41,2.47,5.36,3.21.17.07.35.13.52.18.42-5.74.84-15.64,1.26-21.28.04-.62,1.01-.62.96,0-.43,5.71-.85,15.78-1.27,21.48,0,.03-.01.05-.02.08.89.25,1.79.42,2.69.52,0-.05.02-.1.06-.15,5.71-7.51,4.74-11.44,4.26-15.01-.85-6.32-4.29-12.13-9.65-15.63-5.29-3.46-11.98-4.67-18.11-3.08-.26.07-.44-.07-.54-.25-.13-.17-.15-.41.01-.61,1.44-1.67,1.24-4.43-.35-5.93-.35-.32-.04-.79.33-.81.12-.04.25-.05.39.01,3.38,1.62,7.23,2.13,10.93,1.62,6.69-.91,12.69-5.08,15.31-11.38,2.63-6.32,1.88-13.95-2.19-19.48-.15-.2-.1-.39.02-.52-.15-.38.24-.88.67-.61,2.99,1.84,7.12,1.21,9.43-1.44.38-.43.98.13.74.58.01.1,0,.21-.08.32-2.13,2.97-3.34,6.52-3.57,10.17-.4,6.46,2.25,12.88,7.51,16.76,4.98,3.68,11.63,5.01,17.6,3.21.45-.14.71.36.54.69.07.27-.07.62-.44.63-.4.02-.8.21-1.1.5-.32.32-.54.71-.66,1.16-.08.28-.1.4-.1.67,0,.28,0,.42.07.66.07.27.11.36.26.59.08.13.28.32.42.42.48.32.09,1.07-.38.88-3.24-.22-6.48.29-9.51,1.45-5.45,2.09-9.97,6.27-12.3,11.64-2.4,5.51-2.5,12.04-.15,17.59.07.17.04.33-.04.46.24.43-.36.96-.77.56-1.15-1.11-4.4-1.57-7.39,4.4,2.15.07,4.31-.29,6.4-1.07,3.07-1.15,5.9-2.87,8.42-4.96-.01-.03-.04-.06-.05-.1-.92-3.4-3.38-11.88-4.31-15.28-.16-.6.77-.85.93-.26.89,3.31,3.24,11.38,4.22,14.96.36-.32.71-.63,1.05-.96,2.89-2.77,5.32-5.99,7.38-9.42l.03.03Z"/><path class="cls-4" d="m184.99,101.38c-.05.18-.26.38-.46.35-2.83-.38-5.7-.53-8.56-.46-10.07.26-20.02,3.34-28.45,8.84-.18.12-.43.07-.58-.07-3.82-3.5-8.6-5.83-13.7-6.72-.17-.03-.28-.18-.34-.34-.57-1.58-.11-3.41,1.11-4.54.82-1.05,1.64-2.09,2.46-3.13,0-.03,0-.06.02-.09.02-.06.05-.11.1-.15.24-.29.48-.59.71-.88.08-.1.22-.13.34-.14.07,0,.13.01.18.04.02,0,.04-.01.07-.01,4.67-.01,9.33-.03,14-.04,1.61-2.22,3.42-4.29,5.42-6.18,7.25-6.83,16.75-11.16,26.67-12.08.18-1.69.2-3.39.04-5.08-.49-5.39-2.68-10.58-6.16-14.71,2.66,5.22,3.46,11.32,2.18,17.07-.06.27-.35.38-.59.34-4.35-.8-8.67.81-12.35,3.03-6.28,3.78-11.25,9.84-18.37,12.19-5.32,1.76-12.35.91-15.48-4.23-.19-.32.03-.61.3-.69.07-.05.15-.1.26-.1,2.56-.15,4.99-1.37,7.35-2.33,1.71-5.22,2.64-10.65,3.86-15.99-.47.48-.95.96-1.42,1.44-.33.33-.96,0-.8-.47,1.52-4.66,2.75-9.42,3.68-14.23,1.65-8.56,2.32-17.31,1.9-26.01-.32-6.52-1.27-12.99-2.89-19.3.4,6.6-.68,13.26-3.22,19.39-.12.29-.55.53-.8.21-3.93-5-6.46-11-7.31-17.27-.03.57-.05,1.14-.07,1.72-.17,8.84,1.93,17.69,6.1,25.48.24.44-.23.86-.66.66-2.88-1.36-5.37-3.41-7.31-5.9.28.85.55,1.69.81,2.55,3.06,10.12,4.44,20.64,5.4,31.14.03.31-.33.54-.61.46-3.31-.97-6.33-2.79-8.77-5.21,1.51,5.38.77,11.39-2.21,16.14.96-.01,1.92-.26,2.75-.76.48-.29.96.37.58.76-1.84,1.88-2.13,4.98-.8,7.24.32-.06.69.18.57.57l-.07.24c.03.15,0,.31-.1.43-.43,2.31.64,4.56,2.73,5.78,1.66.96,3.58,1.03,5.2.25.57-.46,1.16-.9,1.77-1.32.47-.32.94.38.58.76-.57.62-1.24,1.13-1.99,1.49-.21.18-.43.35-.65.52-6.44,5.53-10.17,13.38-13.97,20.79-.91,1.77-1.72,3.58-2.69,5.32-.98,1.76-2.05,3.48-3.21,5.12-1.55,2.2-3.29,4.27-5.23,6.14.02,0,.04.01.04.02.15.06.31.1.46.14.37.08.75.13,1.13.18.71.1,1.51.18,2.07.68.1.08.14.21.14.33h0c.44,4.01,3.33,7.22,6.85,8.9,1.61.77,3.38,1.24,5.16,1.33,2.06.11,4.08-.38,6.13-.4,1.84-.02,3.68.43,5.02,1.75,1.07,1.06,1.63,2.5,1.84,3.97.49,3.42-.66,6.59-1.77,9.76-1.17,3.36-2.5,7.83.13,10.86.25.29.13.67-.21.8-5.32,2.07-10.04,5.58-13.58,10.06,4.33,1.41,8.83,2.79,13.42,2.43,3.3-.26,6.68-1.56,8.97-4.01,2.81-3.01,2.83-7.15,2.8-11.02-.08-8.92-.16-17.83-.24-26.74-2.53.25-5.08.31-7.62.16-9.53-.55-18.89-3.81-26.65-9.4-.18-.13-.23-.32-.2-.49-.12-.1-.2-.26-.17-.46.62-4.02,3.45-7.5,7.21-9.03.4-.16.64.25.55.59.24.24.48.47.72.7.04.04.07.09.1.15,3.78,2.26,7.89,3.95,12.17,5.01,3.84.94,7.8,1.38,11.77,1.27,4.37-.12,8.72-.07,13.08.1,8.45.32,16.88,1.06,25.25,2.19-1.41-1.65-2.89-3.22-4.48-4.7-4.74-4.45-10.22-8.1-16.14-10.78,4.91,3.11,9.21,7.16,12.63,11.88.22.3-.07.73-.41.72-4.09-.1-8.19-.35-12.26-.8-14.39-1.54-28.5-5.21-41.82-10.86-.13-.06-.21-.15-.24-.25-.05-.07-.09-.16-.08-.28.21-3.28,2.74-6.23,5.97-6.88.06-.16.2-.28.43-.25,6.01.66,11.79,2.83,16.72,6.32,2.74-1.48,5.57-2.78,8.49-3.86,10.56-3.92,22.09-5.07,33.21-3.34.43-2.03.62-4.11.56-6.18-.16-6.41-2.55-12.71-6.66-17.6,3.01,5.82,3.83,12.72,2.14,19.08h.02Z"/><path class="cls-1" d="m80.95,101.47c6.46,1.46,12.16,5.57,15.3,11.43,2.93,5.46,3.68,12.06,1.91,18,1.12-.65,2.54-.74,3.73-.21-1.13-2.99-1.63-6.18-1.47-9.38.32-6.24,3.09-12.21,7.86-16.28,4.36-3.71,10.05-5.8,15.77-5.66-.07-.13-.13-.26-.18-.4-.4-1.11-.11-2.45.64-3.36-2.86.52-5.82.4-8.65-.3-6.43-1.6-11.88-6.13-14.22-12.38-2.11-5.63-1.67-12.19,1.22-17.45-2.23,1.26-5.03,1.47-7.41.49,2.08,3.13,3.2,6.84,3.34,10.6.27,7.16-3.09,14.12-9.23,17.94-5.49,3.41-12.52,4.18-18.55,1.88.8,1.53.8,3.43.01,4.97,3.28-.68,6.67-.63,9.94.11h-.02Z"/><path class="cls-1" d="m180.44,78.49c-.38-.33-1.11.12-.76.58,4.63,6.11,6.31,14.21,4.47,21.65-10.01-1.26-20.3.32-29.51,4.41-2.54,1.13-4.98,2.46-7.32,3.97-3.82-3.41-8.54-5.74-13.58-6.66-.28-1.05-.04-2.12.6-2.95.04-.02.08-.04.11-.08.08-.1.15-.2.24-.3.08-.07.15-.15.24-.22.11-.09.16-.19.16-.29.84-1.07,1.68-2.14,2.52-3.21.05-.06.08-.13.1-.21.04-.05.09-.1.13-.16.01,0,.03,0,.04,0,4.07-.01,8.14-.03,12.21-.04h1.54c.43,0,.67.03.94-.32.51-.66.99-1.33,1.51-1.98,1.02-1.25,2.11-2.45,3.27-3.58,4.62-4.51,10.23-8,16.32-10.13,3.45-1.21,7.06-2,10.71-2.29.29-.02.45-.21.48-.48.8-6.63-1-13.52-4.84-18.97-1.08-1.54-2.33-2.97-3.71-4.24-.37-.34-.87.04-.82.41-.1.13-.13.31,0,.49,3.62,5.38,4.96,12.13,3.67,18.48-7.3-1.07-13.7,3.64-19.1,7.95-5.18,4.15-10.87,8.7-17.91,8.09-2.98-.26-5.92-1.51-7.71-3.95,1.86-.24,3.64-.95,5.36-1.66.49-.21.99-.41,1.48-.61.54-.22.65-.33.83-.91.37-1.13.7-2.28,1-3.44,1.23-4.64,2.04-9.37,3.17-14.03.11-.46-.46-.82-.8-.47l-1.24,1.24c2.39-7.78,4.01-15.79,4.73-23.9.77-8.69.52-17.48-.88-26.09-.79-4.84-1.96-9.61-3.5-14.26-.2-.59-1.05-.35-.93.26,1.72,8.11.98,16.63-2.03,24.34-4.68-6.25-7.13-14.06-6.86-21.86.01-.53-.85-.67-.94-.13-1.5,8.92-.68,18.19,2.39,26.7.69,1.92,1.5,3.8,2.41,5.63-3.62-2.08-6.52-5.31-8.19-9.15-.15-.39-.31-.79-.47-1.18-.23-.56-1.14-.34-.93.26.15.44.33.87.52,1.3,3.7,9.36,5.71,19.28,6.94,29.24.34,2.72.62,5.45.88,8.18-3.62-1.21-6.82-3.48-9.18-6.44-.69-1.63-1.6-3.14-2.71-4.51h0s-.05-.07-.07-.1c-.38-.46-.95.13-.76.58.7,1.63,1.62,3.15,2.71,4.54,1.75,4.23,1.94,9.12.54,13.48-.51,1.58-1.24,3.07-2.16,4.45-1.44-.24-2.8-1.01-3.64-2.24-1.63-2.39-.92-5.97,1.42-7.63.51-.36.07-1.1-.49-.83-2.34,1.11-5.27-1.12-5.49-3.56.19-.55.3-1.14.3-1.74,0-.44-.7-.7-.9-.24-.25.57-.35,1.16-.35,1.73-.82,2.2-3.36,3.77-5.7,3.06-2.47-.75-3.78-3.8-2.94-6.16.8,1.21,2.3,2.01,3.75,1.95,1.63-.06,2.93-1.22,3.34-2.78.43-1.68-.12-3.63-1.63-4.57-.04-.02-.07-.03-.1-.04-.03-.02-.05-.05-.09-.07-1.52-.77-3.34-.34-4.56.77-1.02.92-1.5,2.28-1.21,3.57-.69.84-1.74,1.21-2.78,1.16,5.91-10.48,9.17-22.4,9.44-34.42.08-3.42-.09-6.85-.5-10.24-.07-.6-1.04-.61-.96,0,1.44,11.94-.17,24.16-4.58,35.34-1.24,3.15-2.72,6.2-4.4,9.14-.82-.27-1.55-.83-1.94-1.66-.1-.22-.46-.32-.66-.17-2.39,1.67-5.3,2.41-8.15,2.22-.02-.06-.05-.13-.1-.18-7.58-8.68-12.9-19.28-15.4-30.52-.71-3.19-1.19-6.43-1.44-9.68-.04-.61-1.01-.62-.96,0,.88,11.69,4.74,23.11,11.13,32.96,1.65,2.54,3.48,4.96,5.43,7.27-.63-.11-1.26-.27-1.87-.46-.95-.95-2.18-1.6-3.58-1.75h-.08c-.71-.94-1.77-1.6-2.97-1.7-1.91-.11-3.56,1.26-4.26,2.96-.69,1.69-.26,3.61,1.23,4.71,1.36,1.01,3.31,1.14,4.82.43,1.65-.77,2.39-2.54,2.1-4.28-.04-.21-.09-.43-.15-.63.76.45,1.56.81,2.39,1.1,1.3,1.44,1.89,3.59,1.42,5.46-.78,3.05-4.09,4.03-6.84,3.09-1.59-.54-2.93-1.72-3.41-3.36-.18-.6-1.06-.35-.93.26.35,1.64.1,3.31-.56,4.82-.01-.03-.02-.06-.04-.09-2.84-3.49-7.19-5.58-11.68-5.67-.45-2.92-.91-5.84-1.35-8.76,2.03.4,4.17-.22,5.68-1.68.15-.14.19-.41.07-.58-6.61-9.72-9.12-22.04-7.08-33.6.57-3.26,1.51-6.46,2.81-9.51.16-.39-.21-.97-.66-.66-5,3.5-8.33,9.1-9.11,15.12-1.94-7.07-1.96-14.61.01-21.69.1-.34-.24-.71-.59-.59-5.46,1.86-9.82,6.32-11.74,11.74-1.96,5.51-.97,11.66,2.3,16.47,1.61,2.37,3.73,4.38,6.21,5.81-2.39.65-4.76,1.29-7.15,1.94-.29.08-.45.44-.29.71,5.11,8.28,8.57,17.52,10.18,27.11.46,2.72.75,5.47.9,8.22.03.49.63.64.9.24.63-.93,1.27-1.86,1.91-2.78.18,4.12,1.02,8.19,2.49,12.04.18.49.38.96.58,1.44.24.56.57,1.12.77,1.69.27.76-.27,1.86-.68,2.49-.98,1.57-2.79,2.61-4.66,2.39-2.09-.24-3.89-1.86-4.37-3.89-.07-.27-.29-.36-.5-.33h-.08c-.21.03-.4.17-.37.45.31,3.41-.57,6.8-.35,10.2-2.12.42-4.25.85-6.37,1.27-2.15-4.79-3.31-9.99-3.43-15.23-.06-2.66.15-5.32.63-7.93.12-.62.24-1.24.39-1.86.14-.58.46-1.13,0-1.62-.78-.83-1.55-1.66-2.26-2.55-5.68-7.02-8.74-16.05-8.84-25.05-.06-5.1.85-10.19,2.74-14.93.15-.39-.38-.77-.71-.54-5.36,3.64-7.02,10.2-6.73,16.36.15,3.28.79,6.53,1.8,9.65,1.3,4.03,3.03,7.91,4.44,11.9,1.39,3.94,2.54,8.04,2.56,12.24.01,2.16-.35,4.24-.83,6.33-.46,1.98-.98,3.98-1.12,6.02-.22,3.17.85,6.3,3.53,8.13,2.08,1.41,4.69,1.8,7.14,1.97,2.81.19,5.63.07,8.45.26,2.57.17,5.27.59,7.45,2.07.41.28.78.6,1.13.96,0,.1.04.21.13.31.62.67,1.24,1.34,1.86,2-6.68.03-13.32,1.33-19.52,3.82-5.21-7.43-12.09-13.64-20.02-18.05-2.16-1.2-4.4-2.25-6.69-3.17,1.02-7.13,6.66-13.29,13.65-15,.52-.13.4-.83-.03-.93-.08-.07-.18-.11-.29-.12-.34-.02-.68-.04-1.02-.07-.1-.09-.24-.14-.41-.1-7.34,1.67-14.14,5.55-19.36,10.98-1.46,1.52-2.78,3.16-3.98,4.9-.13.2-.05.56.17.66,11.75,5.15,22.63,12.27,32.03,21.01,2.63,2.44,5.15,5.01,7.54,7.69.13.15.41.18.58.07,5.87-3.84,12.49-6.39,19.41-7.52,1.39,1.21,2.05,3.08,1.67,4.89-6.95,2.95-14.1,5.37-21.05,8.31-6.49-5.46-14.81-8.57-23.28-8.84-2.11-.07-4.23.05-6.32.34-2.17.3-4.28.91-6.44,1.24-2.1.33-4.42.38-6.23-.89-1.57-1.1-2.28-3-2.32-4.86-.11-5.11,4.3-8.47,8.03-11.2.49-.36.07-1.13-.49-.83C3.77,103.01-.31,110.9.02,118.6c.1,2.2.54,4.37,1.38,6.41.12.29.4.45.71.29,5.68-3.06,12.16-4.4,18.59-4.14,6.43.26,12.8,2.11,18.33,5.41,3.11,1.86,5.93,4.19,8.31,6.92.2.23.62.17.76-.1,3.56-6.94,10.95-11.57,18.69-12.15,1.97-.15,3.93-.03,5.86.36.02.04.03.07.06.1,2.18,2.33,3,5.7,2.2,8.77-5.85-1.55-11.68-3.11-17.53-4.67-.33-.09-.57.15-.61.46-.94,7.98-5.07,15.45-11.27,20.55-.18.15-.18.53,0,.68,2.84,2.33,1.47,6.69.88,9.72-.68,3.54-.5,7.07.85,10.45,1.31,3.29,3.53,6.21,6.46,8.24,3,2.08,6.67,3.06,10.3,2.96,4.12-.11,8.15-1.59,11.28-4.29.4-.34-.04-.88-.47-.8-6.55,1.24-13.58-1.86-17.47-7.19-1.05-1.44-1.86-3.02-2.41-4.72,5.47-5.14,8.62-12.57,8.7-20.06.02-1.91-.18-3.81-.56-5.67,6.41,1.48,13.11,1.44,19.5-.13.23-.06.33-.23.34-.41.68-.48,1.38-.95,2.06-1.43.04-.02.06-.06.09-.09.61.44,1.24.84,1.92,1.21,3.5,1.87,7.57,2.63,11.48,1.92,3.96-.71,7.77-2.85,10.93-5.28.78-.6,1.52-1.23,2.25-1.89.54.38,1.26.46,1.9.55.38.05.76.1,1.13.18.16.04.31.08.46.14.01,0,.11.05.13.07,0,0,0,0,.01,0,.46,3.38,2.44,6.27,5.21,8.22,3,2.13,6.63,2.96,10.27,2.6,2.11-.21,4.47-.72,6.49.18,1.5.67,2.45,2.01,2.85,3.58.87,3.41-.4,6.83-1.52,10.01-1.27,3.6-2.49,8.08-.11,11.43-5.5,2.28-10.31,5.98-13.91,10.73-.2.27.02.62.29.71,4.26,1.38,8.63,2.79,13.15,2.74,3.45-.04,6.94-1.07,9.66-3.25,1.3-1.05,2.39-2.39,3.08-3.92.85-1.91,1.12-3.99,1.18-6.06.07-2.29,0-4.59-.02-6.88l-.07-7.05c-.05-5.38-.1-10.76-.15-16.15,0-.24-.22-.51-.48-.48-9.4,1.01-19.04-.74-27.5-4.97-2.33-1.16-4.55-2.52-6.66-4.03.56-3.46,2.85-6.56,6.02-8.05.01.01.01.03.03.04.22.21.44.43.66.64.02.12.09.23.22.31,6.74,4.08,14.53,6.35,22.42,6.53,2.08.04,4.17-.1,6.26-.1,2.22,0,4.44.04,6.66.1,4.48.13,8.95.38,13.42.73,5.1.41,10.18.96,15.24,1.67.48.07.79-.41.47-.8-5.9-7.2-13.5-13-22-16.79-2.41-1.07-4.88-1.99-7.41-2.74-.61-.18-.81.7-.26.93,7.4,3.02,13.94,8.05,18.78,14.42-14-.42-27.92-2.85-41.22-7.22-3.79-1.24-7.52-2.64-11.2-4.2.29-2.86,2.62-5.3,5.44-5.78.11-.02.19-.07.24-.14,5.82.69,11.4,2.88,16.17,6.3.14.1.35.08.49,0,9.84-5.4,21.07-8.16,32.3-8,3.17.04,6.32.32,9.45.83.25.04.53-.06.59-.34,1.78-7.94-.04-16.54-4.73-23.16-1.33-1.88-2.88-3.59-4.62-5.1h.01Zm-71.46-23.83c.88-1.07,2.5-1.69,3.8-1.02.04.02.07.02.1.03.03.02.04.05.08.07,2.03,1.26,1.64,4.99-.8,5.51-1.19.25-2.52-.35-3.25-1.3-.77-1-.74-2.33.07-3.3Zm-24.13,6.82c-1.09.7-2.59.72-3.74.14-1.28-.66-1.88-2.02-1.52-3.42.41-1.56,1.83-2.9,3.51-2.81,2.75.24,4.22,4.5,1.74,6.08Zm-2.95,73.65s-.05.04-.07.07c-6.33,1.48-12.95,1.43-19.26-.15-.36-.09-.68.24-.59.59,1.69,7.16.16,14.92-3.89,21.04-1.16,1.74-2.51,3.32-4.05,4.73-.13.11-.17.31-.13.47,2.03,6.79,8.33,11.9,15.29,12.94,1.34.2,2.68.25,4.02.14-5.44,3.73-13.11,4.02-18.67.37-2.92-1.91-5.18-4.82-6.44-8.06-.63-1.63-1.04-3.36-1.15-5.1-.11-1.73.12-3.4.45-5.09.62-3.14,1.71-7.34-.83-9.88,4.78-4.06,8.31-9.53,10.08-15.56.46-1.55.78-3.14,1-4.74,5.82,1.55,11.65,3.1,17.46,4.65.26.07.52-.09.59-.34,1.04-3.29.3-6.97-1.86-9.64.16-.25.13-.64-.25-.73-7.92-1.9-16.59.82-22.31,6.56-1.46,1.47-2.71,3.12-3.71,4.93-4.3-4.73-9.88-8.17-15.95-10.16-6.28-2.05-13.08-2.55-19.57-1.35-3.46.63-6.81,1.78-9.93,3.4-1.57-4.24-1.47-8.95,0-13.2-.02,1.27.21,2.53.77,3.67.86,1.77,2.54,2.97,4.45,3.36,2.14.45,4.36.04,6.46-.4,2.22-.47,4.4-.94,6.67-1.1,4.54-.34,9.12.18,13.47,1.49,4.87,1.46,9.43,3.9,13.3,7.21.18.15.37.17.58.07,7.1-3.02,14.41-5.49,21.51-8.5.02,0,.04-.01.05-.03.19-.09.25-.24.24-.39.37-1.53.12-3.17-.7-4.52-.2-.33-.43-.65-.69-.94-.22-.24-.58-.68-.91-.77-.36-.1-.94.11-1.3.17-.49.09-.97.18-1.45.28-3.94.82-7.78,2.12-11.42,3.84-1.96.93-3.84,1.99-5.66,3.16-8.5-9.45-18.58-17.49-29.68-23.69-3.04-1.69-6.16-3.25-9.34-4.65,4.12-5.82,9.94-10.43,16.54-13.14,1.24-.51,2.5-.94,3.78-1.3-4.34,2.02-7.86,5.71-9.73,10.14-.66,1.57-1.09,3.2-1.3,4.89-.03.22.17.39.35.46,8.38,3.31,15.96,8.59,22.01,15.27,1.72,1.9,3.31,3.91,4.76,6.02.11.16.34.3.54.22,6.55-2.69,13.59-4.02,20.67-3.89.43,0,.62-.52.34-.82-.77-.82-1.53-1.65-2.3-2.48,0-.12-.03-.24-.13-.34-3.68-3.99-9.76-3.68-14.73-3.76-2.57-.04-5.24-.07-7.71-.87-2.58-.84-4.54-2.75-5.14-5.45-.45-2.01-.1-4.11.32-6.09.43-1.99.98-3.95,1.25-5.97.54-4.01-.07-8.06-1.17-11.94-2.09-7.36-5.96-14.18-7.11-21.79-.88-5.91-.38-12.94,4.15-17.35.16-.15.34-.3.51-.45-1.83,5.25-2.51,10.87-2.08,16.42.48,6.07,2.25,12.05,5.22,17.38,1.63,2.93,3.65,5.64,5.98,8.05-1.76,6.9-1.65,14.24.31,21.09.56,1.97,1.28,3.87,2.14,5.73.1.2.35.26.54.22,2.39-.47,4.78-.95,7.16-1.42.19-.04.37-.27.35-.46-.25-2.79.29-5.57.38-8.35.68.93,1.63,1.66,2.72,2.1,1.88.75,3.96.42,5.56-.82.77-.6,1.41-1.37,1.83-2.25.35-.74.79-1.89.45-2.68-.53-1.24-1.12-2.44-1.58-3.72-.45-1.24-.83-2.5-1.15-3.78-.72-2.91-1.09-5.89-1.11-8.88,0-.5-.63-.63-.9-.24-.66.95-1.3,1.91-1.96,2.86-.68-9.35-3.09-18.54-7.1-27.02-1.1-2.34-2.34-4.62-3.69-6.84,2.57-.7,5.14-1.39,7.71-2.09.38-.1.5-.69.12-.88-5.01-2.43-8.65-7.25-9.77-12.69-1.11-5.39.6-11,4.23-15.09,1.83-2.06,4.11-3.7,6.66-4.73-1.99,7.83-1.65,16.17.99,23.8.17.5.94.43.94-.13.01-6.08,2.83-12.02,7.48-15.9-4.04,10.69-3.91,22.83.25,33.48,1.18,3.01,2.67,5.89,4.46,8.58-1.43,1.19-3.37,1.58-5.15,1-.38-.13-.64.26-.59.59l1.52,9.88c.03.21.27.35.46.35,4.4-.03,8.64,1.99,11.41,5.4.1.13.23.17.35.15-1.73,3.11-5.27,5.32-8.86,4.73-.41-.07-.88.46-.47.8,3.52,2.86.85,9.72-3.68,9.43-.46-.03-.57.52-.34.82,1.89,2.43,1.55,5.71-.56,7.89-1.47,1.51-3.42,2.16-5.32,1.84-.85-.44-1.73-.81-2.64-1.1-.55-.18-.8.58-.37.88.83.59,1.75.98,2.7,1.16,2.82,1.53,5.15,3.89,7.04,6.48,2.58,3.55,4.28,7.55,6.03,11.54,1.8,4.08,3.62,8.17,6,11.96,1.72,2.73,3.68,5.33,6.18,7.33-.78.54-1.57,1.08-2.35,1.63h-.01Zm29.63-6.3c-.35.33-.7.65-1.05.96-.98-3.58-3.33-11.66-4.22-14.96-.16-.6-1.09-.35-.93.26.92,3.4,3.38,11.88,4.31,15.28,0,.04.03.07.05.1-2.53,2.08-5.35,3.81-8.42,4.96-2.09.78-4.25,1.14-6.4,1.07,3-5.96,6.24-5.51,7.39-4.4.4.39,1-.13.77-.56.07-.13.1-.29.04-.46-2.36-5.55-2.25-12.07.15-17.59,2.33-5.37,6.85-9.55,12.3-11.64,3.03-1.16,6.27-1.67,9.51-1.45.47.18.85-.57.38-.88-.13-.09-.34-.29-.42-.42-.15-.23-.19-.33-.26-.59-.06-.24-.07-.38-.07-.66,0-.27.03-.39.1-.67.13-.44.34-.84.66-1.16.3-.3.7-.49,1.1-.5.37-.01.51-.36.44-.63.16-.33-.09-.83-.54-.69-5.96,1.8-12.61.47-17.6-3.21-5.26-3.88-7.91-10.3-7.51-16.76.23-3.64,1.44-7.19,3.57-10.17.08-.11.1-.22.08-.32.24-.46-.36-1.02-.74-.58-2.3,2.64-6.44,3.28-9.43,1.44-.43-.27-.82.24-.67.61-.13.13-.17.32-.02.52,4.09,5.54,4.82,13.16,2.19,19.48-2.61,6.3-8.62,10.46-15.31,11.38-3.7.51-7.55,0-10.93-1.62-.14-.07-.27-.07-.39-.01-.37.02-.68.49-.33.81,1.6,1.5,1.79,4.25.35,5.93-.18.21-.14.44-.01.61.09.18.28.32.54.25,6.13-1.59,12.82-.38,18.11,3.08,5.35,3.5,8.8,9.31,9.65,15.63.48,3.56,1.44,7.5-4.26,15.01-.04.05-.05.1-.06.15-.91-.1-1.8-.27-2.69-.52,0-.03.02-.05.02-.08.43-5.71.85-15.78,1.27-21.48.04-.62-.91-.62-.96,0-.42,5.64-.84,15.54-1.26,21.28-.18-.06-.35-.12-.52-.18-1.95-.74-3.78-1.84-5.36-3.21-1.67-1.45-3.04-3.26-4.29-5.08-.71-1.03-1.35-2.09-1.98-3.17.06-.02.11-.06.16-.11,2.3-2.44,7.94-8.22,10.24-10.66.43-.45-.26-1.13-.68-.68-2.29,2.43-7.86,8.15-10.2,10.62-1.38-2.5-2.58-5.1-3.75-7.71-.35-.8-.71-1.61-1.07-2.42h0c2.69-.71,10.65-1.42,13.34-2.13.6-.15.35-1.09-.26-.93-2.69.71-10.65,1.42-13.34,2.13-.05.01-.1.04-.14.07-2.66-5.99-5.7-12.16-11.19-15.84.94-.1,1.88-.41,2.74-.93,1.83-1.1,3.21-2.99,3.59-5.1,4.33.68,12.67,1.28,16.92,1.97.6.1.87-.83.26-.93-4.29-.68-12.75-1.3-17.04-1.98h-.03c0-.06,0-.11,0-.17,0-1.26-.38-2.43-1.02-3.48,3.43-.38,5.74-4.25,5.33-7.58,4.96,3.15,14.29,8.25,18.67,11.15.52.35,1-.49.49-.83-4.64-3.07-14.84-8.6-19.5-11.68-.16-.42-.38-.82-.65-1.19,3.85.01,7.41-2.58,8.98-6.04,2.44,3.42,7.65,9.62,9.72,12.68.35.51,1.18.03.83-.49-2.19-3.24-7.94-10.04-10.14-13.28.22-.71.38-1.44.42-2.19,1.7,2.03,4.74,2.91,7.3,2.12,3.52-1.09,4.68-5.09,3.31-8.28-.13-.31-.29-.6-.46-.88,3.53.79,7.36.19,10.43-1.78,1.19,1.8,3.79,2.38,5.7,1.46-.36,1.99.38,4.16,1.92,5.51,1.19,1.04,2.66,1.38,4.09,1.18-2.39,4.45-4.79,12.71-7.18,16.83-.31.54.52,1.02.83.49,2.49-4.29,4.98-13.07,7.47-17.36.05-.1.07-.18.06-.27.71-.27,1.38-.66,1.96-1.19.35-.32.66-.68.92-1.07.73,1.97,2.73,3.53,4.84,3.52-1.24,1.55-1.74,3.64-1.33,5.63.04.16.07.32.13.49-2.89,3.09-8.86,9.26-11.74,12.33-.42.45.26,1.13.68.68,2.78-2.97,8.47-8.85,11.46-12.03.91,1.76,2.67,2.97,4.65,3.31.15.13.38.17.57.07.77.07,1.55.01,2.29-.18-.76,1.39-.99,3.02-.73,4.57-4.29,1.7-12.35,5.48-16.45,7.08-.57.22-.32,1.16.26.93,4.09-1.6,12.13-5.35,16.42-7.06.21.67.52,1.32.92,1.91-.43,2.08.16,4.21,1.69,5.76,1.41,1.43,3.43,2.22,5.43,2.06-3.58,3.31-6.35,7.37-8.78,11.63-.06,0-.13,0-.19,0-3.33.82-13.23,3.32-16.57,4.14-.6.15-.35,1.07.26.93,3.13-.77,12.04-3.02,15.88-3.97-.72,1.31-1.42,2.63-2.11,3.95-.91,1.75-1.76,3.53-2.64,5.29-.02,0-.04-.02-.06-.03-2.55-.88-10.54-1.77-13.09-2.66-.59-.21-.84.73-.26.93,2.51.88,10.3,1.74,12.97,2.62-.79,1.55-1.6,3.07-2.49,4.56-2.06,3.42-4.48,6.66-7.38,9.42l-.03-.03Zm-40.52-32.43c6.03,2.3,13.07,1.52,18.55-1.88,6.14-3.81,9.49-10.77,9.23-17.94-.14-3.76-1.26-7.47-3.34-10.6,2.38.97,5.18.76,7.41-.49-2.89,5.26-3.33,11.82-1.22,17.45,2.33,6.24,7.79,10.78,14.22,12.38,2.83.71,5.79.82,8.65.3-.74.91-1.04,2.25-.64,3.36.05.14.11.27.18.4-5.72-.14-11.41,1.95-15.77,5.66-4.77,4.06-7.54,10.04-7.86,16.28-.16,3.2.35,6.39,1.47,9.38-1.19-.53-2.61-.43-3.73.21,1.77-5.94,1.03-12.55-1.91-18-3.14-5.85-8.84-9.97-15.3-11.43-3.26-.74-6.66-.79-9.94-.11.79-1.54.78-3.45-.01-4.97h.02Zm117.94,9.68c-11.13-1.72-22.66-.57-33.21,3.34-2.92,1.08-5.76,2.37-8.49,3.86-4.94-3.49-10.71-5.65-16.72-6.32-.23-.02-.37.1-.43.25-3.23.66-5.76,3.61-5.97,6.88,0,.12.03.21.08.28.03.1.1.19.24.25,13.32,5.65,27.43,9.31,41.82,10.86,4.07.43,8.17.7,12.26.8.34,0,.63-.43.41-.72-3.42-4.71-7.72-8.75-12.63-11.88,5.92,2.68,11.4,6.32,16.14,10.78,1.58,1.48,3.07,3.06,4.48,4.7-8.38-1.13-16.8-1.87-25.25-2.19-4.37-.16-8.72-.22-13.08-.1-3.95.11-7.92-.32-11.77-1.27-4.29-1.05-8.39-2.75-12.17-5.01-.02-.05-.05-.1-.1-.15-.24-.24-.48-.47-.72-.7.09-.34-.15-.75-.55-.59-3.76,1.52-6.58,5-7.21,9.03-.03.19.05.35.17.46-.03.18.02.36.2.49,7.75,5.59,17.1,8.85,26.65,9.4,2.54.15,5.09.08,7.62-.16.08,8.92.16,17.83.24,26.74.04,3.87,0,8.01-2.8,11.02-2.29,2.45-5.67,3.76-8.97,4.01-4.59.36-9.09-1.02-13.42-2.43,3.53-4.48,8.26-7.99,13.58-10.06.35-.13.46-.52.21-.8-2.63-3.03-1.3-7.5-.13-10.86,1.1-3.17,2.25-6.34,1.77-9.76-.21-1.47-.77-2.91-1.84-3.97-1.34-1.33-3.19-1.78-5.02-1.75-2.05.03-4.07.52-6.13.4-1.78-.1-3.56-.56-5.16-1.33-3.52-1.69-6.41-4.9-6.85-8.89h0c0-.14-.04-.26-.14-.35-.56-.49-1.35-.58-2.07-.68-.38-.05-.76-.1-1.13-.18-.16-.04-.31-.08-.46-.14,0,0-.02-.01-.04-.02,1.94-1.87,3.67-3.95,5.23-6.14,1.16-1.65,2.23-3.36,3.21-5.12.97-1.74,1.78-3.56,2.69-5.32,3.81-7.41,7.53-15.26,13.97-20.79.21-.18.43-.35.65-.52.75-.36,1.42-.88,1.99-1.49.35-.38-.11-1.07-.58-.76-.61.42-1.2.86-1.77,1.32-1.61.78-3.53.71-5.2-.25-2.09-1.21-3.17-3.47-2.73-5.78.09-.12.13-.27.1-.43.02-.08.04-.16.07-.24.13-.4-.25-.63-.57-.57-1.33-2.25-1.04-5.35.8-7.24.38-.38-.11-1.05-.58-.76-.83.5-1.79.74-2.75.76,2.97-4.74,3.71-10.76,2.21-16.14,2.43,2.41,5.45,4.24,8.77,5.21.28.08.64-.15.61-.46-.96-10.5-2.35-21.02-5.4-31.14-.26-.85-.53-1.7-.81-2.55,1.94,2.49,4.44,4.54,7.31,5.9.43.21.9-.21.66-.66-4.17-7.8-6.28-16.64-6.1-25.48.01-.57.04-1.14.07-1.72.85,6.27,3.38,12.27,7.31,17.27.25.32.68.08.8-.21,2.54-6.13,3.62-12.79,3.22-19.39,1.62,6.31,2.57,12.79,2.89,19.3.42,8.7-.25,17.46-1.9,26.01-.93,4.82-2.16,9.57-3.68,14.23-.15.46.48.8.8.47.47-.48.95-.96,1.42-1.44-1.22,5.35-2.16,10.77-3.86,15.99-2.35.96-4.78,2.18-7.35,2.33-.11,0-.19.05-.26.1-.28.08-.5.38-.3.69,3.14,5.15,10.18,5.99,15.48,4.23,7.12-2.36,12.08-8.41,18.37-12.19,3.69-2.22,8-3.83,12.35-3.03.24.04.53-.07.59-.34,1.28-5.74.48-11.85-2.18-17.07,3.48,4.13,5.67,9.32,6.16,14.71.15,1.69.13,3.39-.04,5.08-9.92.91-19.42,5.25-26.67,12.08-2,1.88-3.81,3.95-5.42,6.18-4.67.01-9.33.03-14,.04-.03,0-.04.01-.07.01-.06-.03-.12-.04-.18-.04-.12,0-.26.04-.34.14-.24.29-.48.59-.71.88-.04.04-.08.1-.1.15-.01.03-.01.06-.02.09-.82,1.05-1.64,2.09-2.46,3.13-1.21,1.14-1.68,2.97-1.11,4.54.05.15.17.31.34.34,5.1.89,9.88,3.22,13.7,6.72.15.14.4.19.58.07,8.44-5.51,18.38-8.59,28.45-8.84,2.86-.07,5.72.08,8.56.46.21.03.41-.17.46-.35,1.69-6.36.87-13.27-2.14-19.08,4.11,4.89,6.49,11.19,6.66,17.6.05,2.08-.14,4.15-.56,6.18h-.02Z"/></g></g></g></svg>