<?xml version="1.0" encoding="UTF-8"?><svg id="Calque_2" xmlns="http://www.w3.org/2000/svg" viewBox="0 0 159.3 97.03"><defs><style>.cls-1{fill:#fc5426;}.cls-2{fill:#06004d;}.cls-3{fill:#ffdfb6;}.cls-4{fill:#feb9ae;}.cls-5{fill:#ff8d54;}.cls-6{fill:#401ecb;}.cls-7{fill:#7996ec;}</style></defs><g id="Calque_2-2"><g><path class="cls-2" d="m62.01,85.79c-2.61,1.14-5.22,2.28-7.83,3.41,1.02.17,4.09.04,4.49.03,1.81-.02,3.61-.04,5.42-.06s3.61-.04,5.42-.05c1.25-.01,2.93.21,4.07-.47-2.4-.88-4.55-2.17-6.52-3.86-.42-.36-.83-.74-1.24-1.11-.12.16-.34.25-.57.15-4.58-2.11-8.93-4.7-13.19-7.39-7.7-4.85-15.42-9.74-22.73-15.17-6.01-4.47-11.93-9.33-18.82-12.36,3.27,2.99,6.53,5.98,9.8,8.96.24.22.13.67-.2.74-1.52.34-3.05.67-4.57,1.01,1.05,1.18,1.96,2.4,2.43,3.96.26.87.52,1.65,1.23,2.26.65.55,1.46.89,2.25,1.18,3.94,1.46,7.98,2.65,12.05,3.67.4.1.45.8,0,.86-2.06.29-4.31.61-5.93,2,1.37,1.72,3.62,2.45,5.72,2.86,2.51.49,5.1.69,7.38,1.95.27.15.31.63,0,.77-1.5.66-3,1.31-4.5,1.97,1,.62,2.02,1.19,3.08,1.7.19.09.23.32.2.5-.3,1.94,1.66,3.26,3.37,3.36,1.81.1,3.49-.66,5.1-1.38,1.51-.68,3.03-1.27,4.68-1.55,3.2-.53,6.48-.09,9.42,1.28.29.13.3.64,0,.77Z"/><path class="cls-6" d="m82.22,34.29s-.08-.03-.12-.04c-.02,0-.04.02-.06.03-.06.02-.12.05-.18.08.01.03.03.05.04.08.22.64-.03,1.28-.16,1.91,0,.04-.01.07-.02.11,0,0,0,.02,0,.02,0,.05-.01.11-.01.16,0,.06,0,.12,0,.17,0,.03.02.17,0,.09,0,.05.02.11.04.16,0,.02.01.04.02.06,0,0,0,0,0,.02,0,0,.02.02.03.04.41.06.72-.3.93-.7.27-.53.38-1.24.04-1.76-.12-.18-.35-.36-.53-.44Z"/><path class="cls-2" d="m113.42,22.77c-1.97-.85-3.95-1.7-5.92-2.55-.78-.34-1.65-.81-2.53-.79-.84.02-1.3.66-1.12,1.46.37,1.67,2.4,1.99,3.72,2.57,1.52.67,2.77,1.84,3.59,3.28.13.23.02.6-.27.65-1.15.21-2.36.41-3.35,1.07-.87.58-1.6,1.7-1.28,2.78.23.77.93,1.66.54,2.49-.47,1.01-1.95.56-2.79.47-1.97-.2-3.99-.31-5.92-.79-1.56-.39-3.13-1.08-4.1-2.41-.51-.69-.7-2.05-1.81-1.77-.92.23-1.48,1.14-2.27,1.61-1.51.92-3.04.06-4.38-.73-.69-.4-1.43-.85-2.25-.92-.91-.08-1.76.38-2.58.73-.77.33-1.58.64-2.44.51-.87-.13-1.54-.69-2.24-1.16-.64-.44-1.55-.86-2.06,0-.49.81-.15,1.77.31,2.51.92,1.49,2.58,3.3,1.38,5.13-.12.18-.3.24-.5.2-1.2-.18-2.05-1.05-2.95-1.78-.98-.79-2.09-1.2-3.35-1.17-2.43.06-4.92,1.54-6.36,3.46-1.28,1.71-1.98,4.26.09,5.67.93.63,2.04.89,3,1.45.97.56.92,1.5.25,2.3-2.78,3.31-6.71,5.97-7.8,10.4-.25,1.03-.43,2.39.96,2.46.92.05,1.82-.21,2.74-.14.83.07,1.82.43,1.96,1.36.11.72-.44,1.23-.95,1.63-.68.54-1.49.98-1.25,1.98.14.59.36,1.11.35,1.73-.01.6-.17,1.18-.4,1.74-.74,1.78-3.08,4.14-2.03,6.19,5.66-1.26,11.46-1.79,17.15-2.93,5.72-1.15,11.28-2.97,16.77-4.93,1.37-.49,2.75-.99,4.12-1.49,1.21-.44,2.47-.85,3.52-1.62,1.94-1.43,2.67-4.07,3.58-6.19,1.68-3.95,3.85-8.16,8.22-9.59,2.55-.83,5.27-.67,7.89-1.06,2.17-.33,5.16-.83,6.38,1.58.05.1.05.19.04.28.1,0,.2.05.27.12,0,.01.02.02.03.03-.06-.47-.14-.94-.24-1.41-.36-1.64-1-3.14-1.8-4.62-.75-1.37-1.49-2.74-1.9-4.26-.88-3.24-.52-6.64-.16-9.93.01-.13.07-.22.15-.29-.23-.86-.84-1.52-1.59-2.01-.95-.61-2.06-.89-3.12-1.24-1.07-.34-2.08-.78-3.01-1.4-.34-.23-.66-.47-.97-.73,0,0,0,0,0,0-.05.04-.1.07-.17.09-.12.03-.24.01-.34-.04-.04,0-.07,0-.11,0-.09,0-.18,0-.27,0-.11.06-.25.08-.4.01Zm-29.27,17.22c-1.55,1.08-3.87,1.23-5.32-.1-1.58-1.45-1.76-4.23-.96-6.1.72-1.67,2.32-2.87,4.11-3.07.1-.13.25-.22.46-.17,2.09.51,3.74,2.36,4.01,4.49.24,1.93-.73,3.86-2.3,4.95Z"/><path class="cls-3" d="m82.66,31.55s-.06.02-.09.02c-1.94-.01-3.61,1.37-4.11,3.22-.42,1.55-.1,3.91,1.43,4.79,1.43.82,3.26.28,4.37-.83,1.11-1.11,1.62-2.75,1.16-4.28-.4-1.35-1.45-2.44-2.76-2.92Zm.65,5.7c-.26.38-.62.72-1.08.83-.15.03-.3.04-.45.03-.12.04-.26.04-.36-.03-.03-.02-.05-.05-.08-.07-.18-.07-.35-.17-.51-.29-.71-.56-1-1.55-.79-2.43.13-.56.47-1.04.92-1.39,0-.21.12-.37.32-.45.91-.37,1.99.22,2.37,1.08.39.88.2,1.95-.34,2.72Z"/><path class="cls-2" d="m123.27,60.2c-3.91-1.35-7.72,1.18-11.61,1.69,2.23,1.17,4.73,1.81,7.27,1.61,2.63-.21,5.15-1.38,6.92-3.34-.76-1.34-1.28-2.94-2.65-3.78-1.32-.81-3.01-.83-4.48-.48-3.15.75-5.69,2.94-7.94,5.18,4.31-.17,8.37-3.24,12.74-1.73.54.19.31,1.05-.24.86Z"/><path class="cls-2" d="m123.42,70.9c.9.5,2.02.95,2.81.04.63-.73,1.05-1.59,1.74-2.28,1.25-1.25,2.82-2.12,4.41-2.85,1.35-.62,4.24-1.32,3.76-3.34-.19-.82-.35-1.53.36-2.15.7-.6,1.7-.96,2.52-1.38,1.74-.9,3.47-1.8,5.21-2.7-1.13-.43-2.42-.27-3.62-.36-1.28-.11-2.51-.47-3.3-1.54-.1-.13-.06-.31,0-.45,1.08-2.43,3.03-4.25,5.11-5.83,1.1-.83,2.23-1.61,3.35-2.41,1-.72,2.26-1.49,2.83-2.64-.61-.32-1.19-.68-1.73-1.1-.2-.15-.28-.38-.16-.61.72-1.36,1.61-2.6,2.56-3.81-3.35,1.65-6.71,3.28-10.03,5-3.65,1.89-7.22,3.99-10.25,6.79-.02.02-.05.03-.07.05-.1.13-.2.25-.3.38-.06.07-.16.1-.25.12,0,.08.02.16.02.24.2,3.28-.21,6.63-.78,9.86-.57,3.24-1.49,6.46-3.13,9.33-.33.57-.68,1.12-1.04,1.66Z"/><path class="cls-1" d="m126.01,48.76c-.09-.07-.13-.2-.13-.31,0-.09.04-.18.09-.26-.77-.97-2.16-1.12-3.35-1.01-1.48.14-2.93.42-4.42.54-2.8.21-5.67.42-7.95,2.25-3.45,2.77-4.58,7.29-6.43,11.1-.51,1.05-1.15,2.08-2.06,2.83-.91.75-2,1.22-3.1,1.63-2.64.99-5.29,1.94-7.96,2.85-5.38,1.85-10.84,3.43-16.46,4.41-5.38.93-10.82,1.5-16.13,2.82,1.66,1.36,3.29,2.77,4.88,4.21,1.75,1.59,3.42,3.33,5.27,4.83.08-.12.22-.21.37-.21.07,0,.13,0,.2,0,0,0,0,0,.01,0,0,0,0,0,.01,0,.47,0,.95,0,1.42,0,.12,0,.22.05.3.12,2.58.17,5.16.28,7.75.29,1.4,0,2.8,0,4.21-.05,1.37-.04,2.8,0,4.15-.19.63-.09.46-.62.39-1.09-.05-.34-.11-.7-.03-1.04.11-.51.35-.64.83-.76.51-.14,1.02-.28,1.52-.42,2.12-.62,4.29-1.4,5.99-2.84,1.5-1.27,2.71-3.05,2.82-5.06.04-.8.21-1.69,1.23-1.56.6.08,1.19.31,1.79.43.62.12,1.24.2,1.87.24.4.02,1.28.19,1.57-.17.22-.27.06-.7-.02-.99-.2-.72-.49-1.49-.19-2.22.3-.73,1.09-1.12,1.85-1.18,1.05-.08,1.99.49,2.96.8,2.28.72,4.77.43,7.12.32,2.44-.11,4.89-.22,7.33-.33.44-.77.85-1.57,1.19-2.4.74-1.81,1.26-3.7,1.64-5.61-1.89,2.14-4.61,3.4-7.44,3.67-3.23.31-6.48-.73-9.18-2.47-.12-.08-.18-.2-.2-.33-.19-.15-.28-.43-.06-.66,2.57-2.59,5.57-5.33,9.3-5.99,1.61-.28,3.41-.17,4.81.76,1.5.99,2.04,2.7,2.93,4.17.18-1,.33-2.01.46-3.02.29-2.3.48-4.66.31-6.99-.11,0-.2-.05-.29-.13-.39-.32-.79-.64-1.18-.97Z"/><path class="cls-7" d="m138.53,39.28c-3.81,1.95-7.87,3.9-10.64,7.27,0,0-.01,0-.02.02.17.69.29,1.4.37,2.1.05-.04.1-.08.14-.12.06-.05.12-.08.19-.1,2.99-2.7,6.46-4.78,10.02-6.63,3.97-2.07,8.02-4.01,12.03-5.99.47-.23.86.31.54.7-1.27,1.55-2.53,3.12-3.51,4.88.55.39,1.12.73,1.73,1.02.17.08.27.33.2.5-.48,1.34-1.61,2.18-2.71,3-1.1.82-2.24,1.59-3.35,2.4-2.12,1.56-4.16,3.32-5.32,5.72.82.9,2.22.96,3.36.98,1.32.02,2.71.04,3.84.84.25.18.32.6,0,.77-2.34,1.21-4.68,2.43-7.02,3.64-.44.23-1.02.43-1.37.79-.38.39-.07.91.02,1.36.17.84-.13,1.65-.7,2.27-.64.69-1.54,1.05-2.38,1.41-.87.37-1.73.75-2.56,1.2-.84.45-1.65.96-2.36,1.59-.72.63-1.24,1.36-1.77,2.15-.47.7-1.06,1.28-1.94,1.35-.86.07-1.68-.31-2.41-.72-.96,1.35-2.01,2.65-3.08,3.92,4.25-.63,8.38-1.96,12.23-3.86,3.59-1.77,6.94-4,9.98-6.6,3.19-2.72,6.23-5.82,8.48-9.38,2.37-3.75,3.67-8.04,4.78-12.3,1.14-4.39,2.12-8.81,2.96-13.26-2.34.8-4.6,1.79-6.83,2.84-4.33,2.04-8.65,4.11-12.91,6.28Z"/><path class="cls-6" d="m65.05,91.98c.59-.35,1.25-.57,1.93-.67,1.39-.19,2.79.14,4.12.51.79.22,1.57.46,2.36.65.65.16,1.38.34,2.05.28.87-.07,1.44-.97,1.99-1.56.38-.42.77-.83,1.15-1.25-1.17-.21-2.34-.45-3.48-.77-.19-.05-.37-.12-.56-.17-1.28,1.16-3.16,1-4.76,1.01-2.14.02-4.27.04-6.41.07l-6.52.07c-.91,0-1.9.13-2.8,0-.57-.09-1.18-.42-1.14-1.08,0-.14.08-.32.22-.38,2.49-1.09,4.99-2.17,7.48-3.26-1.6-.62-3.31-.96-5.03-1-1.8-.04-3.59.23-5.29.82-1.8.63-3.46,1.65-5.32,2.1-1.56.37-3.35.38-4.72-.56-1.11-.76-1.81-1.98-1.75-3.31-1.23-.61-2.42-1.28-3.56-2.04-.25-.16-.33-.63,0-.77,1.46-.64,2.92-1.28,4.38-1.92-4.23-1.81-9.87-.8-12.8-5.01-.11-.16-.06-.41.07-.54,1.26-1.24,2.89-1.81,4.57-2.15-3.49-.92-6.97-1.96-10.33-3.26-1.51-.59-2.91-1.41-3.5-3-.35-.94-.54-1.86-1.08-2.73-.54-.87-1.24-1.62-1.94-2.36-.22-.23-.14-.67.2-.74,1.49-.33,2.99-.66,4.48-.99-3.66-3.35-7.33-6.71-10.99-10.06-.32-.29.01-.9.43-.74,4.39,1.61,8.41,4.01,12.24,6.67,3.45,2.41,6.76,5.03,10.15,7.51,3.72,2.73,7.55,5.3,11.42,7.82,3.82,2.49,7.66,4.96,11.53,7.37,3.47,2.16,7.01,4.22,10.69,6-1.59-1.47-3.15-2.97-4.79-4.39-5.12-4.42-10.61-8.37-16.32-11.99-2.85-1.8-5.74-3.53-8.65-5.24-.23.18-.62.15-.7-.21-.02-.07-.02-.15-.04-.22-.4-.24-.81-.47-1.21-.71-.19.28-.7.31-.8-.11-.03-.13-.06-.27-.09-.4-2.11-1.22-4.23-2.43-6.34-3.65-6.2-3.58-12.4-7.16-18.6-10.73-1.25-.72-2.61-1.74-4.09-1.91-.72-.08-1.44.14-1.79.82-.32.62-.26,1.39-.14,2.05.55,3.15,2.13,6.1,3.74,8.82,3.35,5.67,7.15,11.1,11.29,16.22,3.92,4.85,8.13,9.56,12.82,13.68,4.39,3.86,9.36,7.23,14.97,9.01,3.03.96,6.16,1.38,9.33,1.35,1.74-.02,3.47-.16,5.19-.37,1.65-.2,3.46-.37,4.91-1.27.63-.39,1.18-.9,1.82-1.28Z"/><path class="cls-4" d="m117.71,69.89c-1.9.09-3.81.25-5.71.18-.77-.03-1.55-.11-2.3-.29-.77-.18-1.47-.51-2.22-.76-.63-.21-1.44-.36-1.98.14-.47.43-.24,1.09-.09,1.61.27.93.51,2.14-.67,2.55-.67.23-1.49.11-2.17.04-.81-.08-1.62-.21-2.41-.41-.21-.05-.58-.24-.78-.21-.29.04-.24.07-.27.35-.03.31-.03.63-.07.94-.09.6-.25,1.17-.49,1.72-.53,1.24-1.38,2.34-2.39,3.23-2.31,2.02-5.32,2.87-8.22,3.65-.17.52.14,1.18.09,1.71-.06.61-.47,1.01-1.06,1.13-.85.18-1.8.13-2.67.16-.96.04-1.92.07-2.88.09-3.91.08-7.83-.04-11.73-.33-.03,0-.06-.02-.09-.02-.14,0-.28-.01-.41-.02.45.33.92.65,1.4.95,2.7,1.64,5.81,2.36,8.89,2.89.08-.01.17,0,.24.04.12.02.24.04.37.06.57.09.32.95-.24.86-.05,0-.1-.02-.15-.03-.55.59-1.09,1.18-1.64,1.78-.47.51-.93,1.15-1.56,1.48-1.24.67-3.02.04-4.27-.31-1.47-.41-2.97-.95-4.52-.92-.78.01-1.53.2-2.2.6-.67.39-1.24.93-1.9,1.33-.19.11-.38.21-.58.31,3.67,1.07,7.46,1.61,11.29,1.59.1,0,.18.03.25.08,7.46-.69,14.95-1.76,22.04-4.26,5.94-2.09,11.56-5.2,16.13-9.57,2.39-2.29,4.5-4.85,6.58-7.41,1.36-1.68,2.72-3.35,3.87-5.16-1.82.08-3.63.17-5.45.25Z"/><path class="cls-7" d="m33.86,59.34c-.18-2.03.25-4.1,1.28-5.88.27-.47.59-.9.93-1.32.25-.32.37-.57.21-.97-.12-.3-.31-.58-.46-.86-.53-1.04-.95-2.14-1.16-3.29-.42-2.22-.04-4.48.85-6.54,1.86-4.3,5.73-7.15,9.64-9.48-1.8-2.55-2.22-5.84-1.51-8.86.7-3,2.43-5.66,4.46-7.93,2.05-2.28,4.45-4.28,7.12-5.79,5.42-3.07,12.06-3.96,17.87-1.5,1.27-2.88,4.07-4.95,7.16-5.37-2.73-.5-5.52-.69-8.33-.65-4.91.05-9.96.46-14.66,1.95-4.11,1.3-7.81,3.59-10.96,6.51-6.4,5.94-10.6,14.12-12.88,22.47-2.38,8.73-2.65,18-.71,26.84.39.22.77.45,1.15.67Z"/><path class="cls-2" d="m73.75,7.62c-.11.29-.38.39-.65.27-3.14-1.43-6.69-1.81-10.09-1.29-5.76.89-10.9,4.31-14.65,8.67-1.86,2.17-3.41,4.71-3.96,7.55-.53,2.75-.07,5.79,1.71,8.01.18.22.18.54-.09.7-2.25,1.32-4.45,2.75-6.33,4.57-3.26,3.18-5.34,7.77-3.75,12.28.21.6.48,1.19.78,1.75.23.43.53.88.54,1.38.01.51-.27.89-.57,1.27-.33.41-.62.84-.87,1.3-.98,1.77-1.32,3.84-1,5.83,3.99,2.33,7.95,4.7,11.8,7.24.11.07.22.15.33.22.52-1.36,1.37-2.54,2.49-3.47-2.58-1.25-4.74-3.23-6.28-5.67-3.3-5.23-3.16-11.85-.5-17.32,2.59-5.32,7.45-9.19,12.88-11.34-1.67-2.88-.64-6.81.87-9.55,2.86-5.2,8.64-8.5,14.52-8.73,6.46-.25,12.7,2.82,17.18,7.35,1.71-4.94,7.02-8.23,12.22-7.54.02-.03.04-.07.06-.1-.39-.26-.78-.51-1.17-.77-4.03-2.6-8.16-5.16-12.64-6.91-1.2-.47-2.41-.86-3.64-1.18-.04.18-.17.33-.41.29-3.66-.49-7.46,1.7-8.76,5.18Z"/><path class="cls-6" d="m100.09,11.96c-4.97-.65-10.07,2.81-11.35,7.64-.08.32-.51.44-.74.2-2.43-2.59-5.38-4.72-8.67-6.06-2.88-1.18-6-1.76-9.11-1.51-2.79.22-5.51,1.2-7.84,2.73-2.28,1.5-4.22,3.55-5.44,6-1.27,2.54-2.1,6.11-.34,8.6.18.25-.02.56-.27.65-3.02,1.12-5.85,2.78-8.23,4.96-4.33,3.97-7,9.73-6.49,15.66.45,5.34,3.8,10.44,8.81,12.54.36.15.44.58.11.81-1.31.9-2.28,2.19-2.8,3.68,3.28,2.21,6.47,4.55,9.55,7.03,0,0,.01,0,.02,0,.39-.1.79-.2,1.18-.3-1.06-2.36,1.33-4.73,2.15-6.81.3-.77.38-1.5.14-2.29-.17-.57-.37-1.14-.18-1.74.28-.87,1.16-1.31,1.8-1.88.26-.23.58-.53.27-.87-.3-.33-.89-.36-1.3-.37-.96,0-1.92.28-2.88.1-2.43-.46-1.42-3.66-.76-5.18.88-2.05,2.34-3.79,3.86-5.4.8-.85,1.63-1.67,2.44-2.51.41-.43.89-.85,1.23-1.34.27-.38.18-.63-.21-.84-.22-.12-.45-.22-.68-.31-1.04-.46-2.16-.85-2.97-1.68-.71-.71-1.08-1.68-1.06-2.68.02-2.19,1.53-4.18,3.18-5.47,1.7-1.32,3.92-2.26,6.11-2.03,1.05.11,2.01.49,2.84,1.12.82.62,1.55,1.45,2.56,1.75.42-1.01-.26-2.11-.84-2.94-.62-.88-1.31-1.79-1.35-2.91-.03-.81.28-1.73,1-2.17.77-.48,1.66-.25,2.39.2.73.45,1.41,1.17,2.31,1.23.91.07,1.8-.47,2.61-.81.79-.33,1.6-.56,2.46-.42.81.13,1.54.53,2.24.93.69.4,1.4.89,2.2,1.05,1,.2,1.67-.42,2.37-1.04.65-.57,1.43-1.09,2.33-.98,1.01.12,1.26.98,1.69,1.75.86,1.56,2.62,2.22,4.27,2.58,2.08.46,4.26.56,6.37.78.23.02.8.17.92-.09.07-.14-.03-.38-.07-.52-.12-.39-.31-.74-.45-1.12-.32-.84-.19-1.75.24-2.53.87-1.61,2.64-2.17,4.33-2.51-.92-1.32-2.2-2.17-3.73-2.73-1.29-.47-2.65-1.02-3.2-2.39-.45-1.12-.13-2.48,1.12-2.89,1.43-.47,3.06.52,4.32,1.07,1.69.73,3.38,1.46,5.06,2.18.03-.01.07-.02.1-.02-1.02-.93-1.96-1.94-2.96-2.89-2.94-2.8-6.22-5.21-9.6-7.46-.04.06-.08.11-.15.15,0,0,0,0,0,0-.06.1-.11.19-.17.29-.06.1-.16.17-.27.2-.11.04-.24,0-.34-.04-.06-.03-.11-.1-.15-.16Z"/><g><path class="cls-5" d="m158.74,29.05c-4.57,1.48-8.88,3.7-13.2,5.78-4.31,2.07-8.71,4.09-12.8,6.57-1.89,1.15-3.68,2.48-5.14,4.15-.02-.07-.04-.14-.06-.2-.52-1.58-1.35-2.99-2.12-4.45-.8-1.53-1.34-3.14-1.54-4.86-.2-1.71-.14-3.43,0-5.14.06-.74.14-1.48.22-2.21.15-.09.25-.26.22-.47-.29-2.12-2.35-3.23-4.18-3.84-1.19-.4-2.4-.72-3.49-1.36-.97-.57-1.83-1.31-2.65-2.08-1.75-1.65-3.4-3.37-5.25-4.92-1.89-1.58-3.87-3.04-5.9-4.43-4.09-2.8-8.31-5.52-12.77-7.68-4.54-2.2-9.31-3.5-14.34-3.81-2.61-.16-5.23-.1-7.84.07-2.49.16-4.98.43-7.42.93-4.47.92-8.65,2.73-12.28,5.51-7.01,5.36-11.76,13.32-14.58,21.58-3.07,8.97-3.87,18.71-2.29,28.06.1.61.22,1.22.34,1.83-1.11-.64-2.22-1.28-3.34-1.92-6.39-3.69-12.78-7.38-19.17-11.07-1.47-.85-2.92-1.83-4.48-2.52-1.1-.48-2.49-.84-3.57-.11-1.13.76-1.23,2.2-1.03,3.43.25,1.57.82,3.12,1.45,4.57,1.34,3.11,3.19,6.01,5.03,8.85,1.84,2.85,3.77,5.62,5.81,8.33,3.95,5.24,8.24,10.28,12.94,14.86,4.29,4.18,9.08,8.02,14.57,10.5,2.7,1.22,5.54,2.1,8.48,2.51,3.54.49,7.13.3,10.66-.18.89-.12,1.81-.24,2.68-.48.05.06.11.11.2.14,3.66,1.16,7.46,1.78,11.29,1.86.07.12.18.2.36.18,7.11-.62,14.25-1.55,21.09-3.66,6.07-1.88,11.9-4.7,16.78-8.8,2.57-2.16,4.81-4.67,6.95-7.25.23-.27.45-.54.68-.82.06.03.14.06.23.04,8.08-1.07,15.63-4.61,21.99-9.66,3.31-2.62,6.39-5.65,8.89-9.05,2.67-3.63,4.26-7.84,5.46-12.15,1.48-5.29,2.66-10.68,3.65-16.08.06-.31-.2-.66-.55-.55Zm-31.14,30.85c.57-3.23.98-6.57.78-9.86,0-.08-.02-.16-.02-.24.09-.01.19-.04.25-.12.1-.13.2-.25.3-.38.02-.02.05-.02.07-.05,3.03-2.8,6.6-4.9,10.25-6.79,3.32-1.72,6.68-3.35,10.03-5-.95,1.2-1.84,2.45-2.56,3.81-.12.23-.04.46.16.61.55.42,1.12.78,1.73,1.1-.58,1.15-1.83,1.92-2.83,2.64-1.12.8-2.25,1.58-3.35,2.41-2.08,1.58-4.03,3.4-5.11,5.83-.06.14-.1.32,0,.45.79,1.07,2.02,1.43,3.3,1.54,1.21.1,2.49-.07,3.62.36-1.74.9-3.47,1.8-5.21,2.7-.82.42-1.81.78-2.52,1.38-.71.61-.55,1.33-.36,2.15.48,2.01-2.41,2.72-3.76,3.34-1.59.73-3.16,1.6-4.41,2.85-.69.69-1.11,1.55-1.74,2.28-.78.91-1.9.46-2.81-.04.37-.54.72-1.1,1.04-1.66,1.65-2.87,2.56-6.09,3.13-9.33Zm-.44-3.06c-.13,1.01-.28,2.02-.46,3.02-.89-1.48-1.43-3.18-2.93-4.17-1.4-.93-3.2-1.04-4.81-.76-3.73.66-6.73,3.4-9.3,5.99-.22.22-.13.5.06.66.02.13.08.25.2.33,2.7,1.73,5.95,2.77,9.18,2.47,2.83-.27,5.55-1.52,7.44-3.67-.38,1.92-.9,3.8-1.64,5.61-.34.83-.75,1.63-1.19,2.4-2.44.11-4.89.22-7.33.33-2.35.11-4.84.4-7.12-.32-.97-.31-1.91-.88-2.96-.8-.76.06-1.54.45-1.85,1.18-.3.73-.01,1.51.19,2.22.08.29.24.72.02.99-.3.36-1.17.2-1.57.17-.63-.04-1.25-.12-1.87-.24-.59-.11-1.19-.35-1.79-.43-1.02-.13-1.19.76-1.23,1.56-.11,2.01-1.32,3.79-2.82,5.06-1.71,1.44-3.88,2.22-5.99,2.84-.51.15-1.02.29-1.52.42-.48.13-.72.25-.83.76-.08.34-.02.7.03,1.04.07.46.24,1-.39,1.09-1.36.19-2.79.15-4.15.19-1.4.04-2.8.06-4.21.05-2.58-.02-5.17-.12-7.75-.29-.08-.07-.18-.12-.3-.12-.47,0-.95,0-1.42,0,0,0,0,0-.01,0,0,0,0,0-.01,0-.07,0-.13,0-.2,0-.15,0-.28.09-.37.21-1.85-1.5-3.52-3.23-5.27-4.83-1.59-1.45-3.22-2.85-4.88-4.21,5.3-1.32,10.75-1.89,16.13-2.82,5.62-.97,11.07-2.56,16.46-4.41,2.66-.92,5.32-1.86,7.96-2.85,1.1-.41,2.18-.88,3.1-1.63.91-.75,1.55-1.78,2.06-2.83,1.85-3.81,2.97-8.33,6.43-11.1,2.28-1.83,5.15-2.03,7.95-2.25,1.48-.11,2.94-.4,4.42-.54,1.2-.11,2.58.05,3.35,1.01-.05.08-.1.16-.09.26,0,.11.04.24.13.31.39.32.79.64,1.18.97.09.07.18.12.29.13.17,2.33-.02,4.69-.31,6.99Zm-3.65,2.5c-4.37-1.51-8.43,1.56-12.74,1.73,2.25-2.24,4.79-4.44,7.94-5.18,1.47-.35,3.16-.32,4.48.48,1.37.84,1.89,2.44,2.65,3.78-1.77,1.96-4.29,3.14-6.92,3.34-2.53.2-5.04-.45-7.27-1.61,3.9-.51,7.7-3.04,11.61-1.69.54.19.78-.67.24-.86Zm-61.5,25.67c-2.94-1.37-6.22-1.82-9.42-1.28-1.64.27-3.16.87-4.68,1.55-1.61.72-3.29,1.48-5.1,1.38-1.71-.1-3.67-1.42-3.37-3.36.03-.18-.02-.41-.2-.5-1.06-.51-2.08-1.08-3.08-1.7,1.5-.66,3-1.31,4.5-1.97.31-.14.27-.62,0-.77-2.28-1.26-4.87-1.46-7.38-1.95-2.09-.41-4.35-1.13-5.72-2.86,1.63-1.39,3.87-1.72,5.93-2,.45-.06.4-.76,0-.86-4.07-1.02-8.12-2.21-12.05-3.67-.79-.29-1.6-.63-2.25-1.18-.71-.6-.97-1.39-1.23-2.26-.46-1.55-1.38-2.78-2.43-3.96,1.52-.34,3.05-.67,4.57-1.01.32-.07.44-.52.2-.74-3.27-2.99-6.53-5.98-9.8-8.96,6.89,3.03,12.81,7.9,18.82,12.36,7.31,5.43,15.02,10.32,22.73,15.17,4.27,2.69,8.61,5.27,13.19,7.39.23.11.44,0,.57-.15.41.37.82.75,1.24,1.11,1.97,1.7,4.12,2.98,6.52,3.86-1.15.67-2.83.46-4.07.47-1.81.02-3.61.04-5.42.05s-3.61.04-5.42.06c-.4,0-3.48.14-4.49-.03,2.61-1.14,5.22-2.28,7.83-3.41.3-.13.29-.64,0-.77Zm52.07-62.27s.07,0,.11,0c.11.05.23.08.34.04.07-.02.12-.05.17-.09,0,0,0,0,0,0,.32.25.64.5.97.73.93.63,1.94,1.06,3.01,1.4,1.06.34,2.17.62,3.12,1.24.75.49,1.36,1.15,1.59,2.01-.08.07-.14.16-.15.29-.36,3.29-.72,6.69.16,9.93.41,1.52,1.15,2.88,1.9,4.26.8,1.47,1.44,2.97,1.8,4.62.1.47.18.94.24,1.41,0-.01-.02-.02-.03-.03-.07-.08-.17-.11-.27-.12.01-.09.01-.18-.04-.28-1.23-2.4-4.21-1.9-6.38-1.58-2.62.39-5.35.23-7.89,1.06-4.37,1.42-6.53,5.64-8.22,9.59-.91,2.12-1.63,4.76-3.58,6.19-1.05.77-2.31,1.18-3.52,1.62-1.37.5-2.74,1-4.12,1.49-5.49,1.96-11.05,3.78-16.77,4.93-5.69,1.14-11.49,1.67-17.15,2.93-1.05-2.05,1.29-4.41,2.03-6.19.23-.55.39-1.14.4-1.74.01-.62-.21-1.15-.35-1.73-.24-.99.57-1.44,1.25-1.98.52-.4,1.06-.91.95-1.63-.14-.93-1.13-1.3-1.96-1.36-.92-.07-1.82.18-2.74.14-1.38-.07-1.21-1.43-.96-2.46,1.09-4.43,5.03-7.09,7.8-10.4.67-.8.72-1.74-.25-2.3-.96-.55-2.07-.81-3-1.45-2.06-1.41-1.37-3.97-.09-5.67,1.44-1.92,3.93-3.4,6.36-3.46,1.26-.03,2.38.38,3.35,1.17.9.73,1.75,1.6,2.95,1.78.21.03.38-.02.5-.2,1.2-1.83-.46-3.64-1.38-5.13-.46-.74-.8-1.69-.31-2.51.52-.85,1.42-.43,2.06,0,.7.48,1.37,1.03,2.24,1.16.85.13,1.67-.18,2.44-.51.81-.35,1.66-.81,2.58-.73.82.07,1.56.52,2.25.92,1.35.78,2.87,1.64,4.38.73.79-.48,1.35-1.38,2.27-1.61,1.11-.28,1.3,1.08,1.81,1.77.98,1.33,2.54,2.02,4.1,2.41,1.93.48,3.95.58,5.92.79.85.09,2.32.53,2.79-.47.39-.83-.31-1.72-.54-2.49-.32-1.08.41-2.2,1.28-2.78.99-.66,2.21-.86,3.35-1.07.29-.05.4-.42.27-.65-.82-1.44-2.07-2.61-3.59-3.28-1.33-.58-3.35-.9-3.72-2.57-.18-.8.28-1.44,1.12-1.46.88-.02,1.75.45,2.53.79,1.97.85,3.95,1.7,5.92,2.55.14.06.28.04.4-.01.09,0,.18,0,.27,0Zm-13.5-10.58c.11-.04.21-.1.27-.2.06-.1.11-.19.17-.29,0,0,0,0,0,0,.06-.04.11-.09.15-.15,3.38,2.25,6.66,4.66,9.6,7.46,1,.95,1.94,1.96,2.96,2.89-.03,0-.07,0-.1.02-1.69-.73-3.38-1.46-5.06-2.18-1.27-.55-2.89-1.53-4.32-1.07-1.24.4-1.57,1.77-1.12,2.89.55,1.37,1.9,1.91,3.2,2.39,1.53.56,2.82,1.41,3.73,2.73-1.69.34-3.46.9-4.33,2.51-.42.78-.56,1.69-.24,2.53.14.38.34.73.45,1.12.04.13.14.38.07.52-.13.26-.7.12-.92.09-2.12-.22-4.29-.32-6.37-.78-1.65-.36-3.41-1.03-4.27-2.58-.43-.77-.68-1.63-1.69-1.75-.9-.11-1.69.41-2.33.98-.7.62-1.37,1.24-2.37,1.04-.8-.16-1.51-.65-2.2-1.05-.7-.4-1.43-.8-2.24-.93-.86-.14-1.67.09-2.46.42-.81.34-1.7.88-2.61.81-.9-.07-1.58-.79-2.31-1.23-.72-.45-1.61-.68-2.39-.2-.72.45-1.03,1.36-1,2.17.04,1.12.73,2.03,1.35,2.91.58.83,1.26,1.93.84,2.94-1-.3-1.73-1.12-2.56-1.75-.84-.63-1.8-1.01-2.84-1.12-2.19-.23-4.41.71-6.11,2.03-1.66,1.29-3.16,3.28-3.18,5.47-.01,1,.36,1.96,1.06,2.68.82.83,1.93,1.22,2.97,1.68.23.1.46.2.68.31.39.21.48.45.21.84-.34.49-.82.91-1.23,1.34-.81.84-1.64,1.66-2.44,2.51-1.52,1.61-2.98,3.35-3.86,5.4-.65,1.52-1.67,4.71.76,5.18.95.18,1.92-.1,2.88-.1.41,0,1,.03,1.3.37.31.34,0,.64-.27.87-.64.57-1.52,1.01-1.8,1.88-.19.6,0,1.17.18,1.74.24.79.16,1.53-.14,2.29-.82,2.08-3.21,4.45-2.15,6.81-.4.09-.79.19-1.18.3,0,0-.01,0-.02,0-3.08-2.48-6.27-4.82-9.55-7.03.53-1.49,1.5-2.78,2.8-3.68.34-.23.25-.66-.11-.81-5-2.1-8.36-7.2-8.81-12.54-.5-5.93,2.17-11.69,6.49-15.66,2.38-2.18,5.21-3.84,8.23-4.96.25-.09.45-.4.27-.65-1.76-2.5-.93-6.07.34-8.6,1.23-2.45,3.16-4.51,5.44-6,2.34-1.53,5.05-2.51,7.84-2.73,3.11-.24,6.23.34,9.11,1.51,3.29,1.35,6.24,3.47,8.67,6.06.23.25.66.12.74-.2,1.28-4.83,6.38-8.29,11.35-7.64.04.07.09.13.15.16.1.05.23.08.34.04Zm-18.07-9.74c.24.03.37-.11.41-.29,1.23.32,2.44.71,3.64,1.18,4.48,1.75,8.61,4.31,12.64,6.91.39.25.78.51,1.17.77-.02.03-.04.07-.06.1-5.2-.69-10.51,2.6-12.22,7.54-4.48-4.53-10.72-7.6-17.18-7.35-5.87.23-11.66,3.53-14.52,8.73-1.51,2.74-2.54,6.66-.87,9.55-5.43,2.15-10.29,6.02-12.88,11.34-2.66,5.47-2.79,12.08.5,17.32,1.54,2.44,3.7,4.41,6.28,5.67-1.12.93-1.97,2.11-2.49,3.47-.11-.07-.22-.15-.33-.22-3.86-2.54-7.82-4.92-11.8-7.24-.32-1.99.02-4.06,1-5.83.25-.46.55-.89.87-1.3.3-.38.58-.76.57-1.27-.01-.5-.32-.95-.54-1.38-.3-.56-.56-1.15-.78-1.75-1.59-4.51.49-9.1,3.75-12.28,1.87-1.83,4.08-3.25,6.33-4.57.27-.16.27-.48.09-.7-1.77-2.22-2.24-5.27-1.71-8.01.55-2.83,2.1-5.38,3.96-7.55,3.75-4.36,8.89-7.79,14.65-8.67,3.4-.52,6.95-.14,10.09,1.29.28.13.55.02.65-.27,1.3-3.49,5.1-5.67,8.76-5.18Zm-49.09,29.4c2.28-8.35,6.48-16.53,12.88-22.47,3.15-2.93,6.85-5.21,10.96-6.51,4.7-1.49,9.75-1.9,14.66-1.95,2.81-.03,5.59.16,8.33.65-3.09.42-5.89,2.5-7.16,5.37-5.81-2.46-12.45-1.57-17.87,1.5-2.67,1.51-5.08,3.51-7.12,5.79-2.03,2.27-3.76,4.93-4.46,7.93-.7,3.02-.29,6.31,1.51,8.86-3.91,2.33-7.78,5.18-9.64,9.48-.89,2.06-1.27,4.32-.85,6.54.22,1.15.64,2.25,1.16,3.29.15.29.33.57.46.86.17.4.04.65-.21.97-.33.43-.65.85-.93,1.32-1.03,1.78-1.46,3.85-1.28,5.88-.38-.22-.77-.45-1.15-.67-1.93-8.84-1.67-18.11.71-26.84Zm24.9,62.69c-1.72.21-3.46.35-5.19.37-3.17.04-6.31-.39-9.33-1.35-5.61-1.78-10.58-5.16-14.97-9.01-4.69-4.12-8.9-8.83-12.82-13.68-4.14-5.12-7.94-10.55-11.29-16.22-1.61-2.73-3.19-5.67-3.74-8.82-.12-.66-.18-1.44.14-2.05.35-.68,1.07-.9,1.79-.82,1.48.17,2.83,1.19,4.09,1.91,6.2,3.58,12.4,7.16,18.6,10.73,2.11,1.22,4.23,2.43,6.34,3.65.03.13.06.27.09.4.1.42.61.39.8.11.4.23.81.47,1.21.71.01.07.02.15.04.22.08.36.47.39.7.21,2.91,1.7,5.8,3.43,8.65,5.24,5.72,3.62,11.2,7.57,16.32,11.99,1.64,1.41,3.2,2.91,4.79,4.39-3.68-1.78-7.22-3.84-10.69-6-3.87-2.41-7.71-4.88-11.53-7.37-3.87-2.52-7.7-5.09-11.42-7.82-3.4-2.49-6.7-5.1-10.15-7.51-3.82-2.67-7.85-5.06-12.24-6.67-.42-.15-.75.45-.43.74,3.66,3.35,7.33,6.71,10.99,10.06-1.49.33-2.99.66-4.48.99-.34.08-.41.51-.2.74.69.75,1.39,1.5,1.94,2.36.54.86.73,1.79,1.08,2.73.59,1.59,1.99,2.41,3.5,3,3.35,1.31,6.84,2.34,10.33,3.26-1.69.34-3.31.92-4.57,2.15-.13.13-.18.38-.07.54,2.93,4.21,8.57,3.2,12.8,5.01-1.46.64-2.92,1.28-4.38,1.92-.33.14-.25.6,0,.77,1.14.76,2.33,1.44,3.56,2.04-.06,1.33.64,2.55,1.75,3.31,1.37.94,3.16.93,4.72.56,1.87-.45,3.52-1.47,5.32-2.1,1.7-.59,3.49-.87,5.29-.82,1.72.04,3.42.38,5.03,1-2.49,1.09-4.99,2.17-7.48,3.26-.14.06-.21.24-.22.38-.04.66.56.99,1.14,1.08.9.14,1.89.02,2.8,0l6.52-.07c2.14-.02,4.27-.04,6.41-.07,1.61-.02,3.49.15,4.76-1.01.19.06.37.12.56.17,1.15.32,2.31.56,3.48.77-.38.42-.77.83-1.15,1.25-.54.59-1.12,1.49-1.99,1.56-.67.06-1.4-.13-2.05-.28-.79-.19-1.57-.43-2.36-.65-1.33-.37-2.73-.7-4.12-.51-.68.09-1.34.32-1.93.67-.64.38-1.19.89-1.82,1.28-1.45.9-3.25,1.06-4.91,1.27Zm60.97-19.72c-2.08,2.57-4.19,5.12-6.58,7.41-4.56,4.38-10.19,7.48-16.13,9.57-7.09,2.5-14.58,3.57-22.04,4.26-.07-.05-.14-.08-.25-.08-3.83.02-7.62-.52-11.29-1.59.2-.09.39-.19.58-.31.66-.4,1.24-.93,1.9-1.33.67-.4,1.42-.59,2.2-.6,1.55-.03,3.05.51,4.52.92,1.25.35,3.03.98,4.27.31.62-.33,1.09-.97,1.56-1.48.55-.59,1.09-1.18,1.64-1.78.05,0,.1.02.15.03.56.09.8-.77.24-.86-.12-.02-.24-.04-.37-.06-.07-.04-.16-.05-.24-.04-3.09-.52-6.19-1.25-8.89-2.89-.48-.29-.94-.61-1.4-.95.14,0,.28.02.41.02.03,0,.06.02.09.02,3.9.29,7.82.4,11.73.33.96-.02,1.92-.05,2.88-.09.87-.04,1.82.02,2.67-.16.59-.12,1-.53,1.06-1.13.05-.53-.26-1.19-.09-1.71,2.9-.78,5.91-1.64,8.22-3.65,1.01-.89,1.87-1.98,2.39-3.23.24-.55.4-1.13.49-1.72.05-.31.04-.63.07-.94.03-.28-.02-.32.27-.35.21-.03.58.16.78.21.79.2,1.6.33,2.41.41.69.07,1.5.19,2.17-.04,1.18-.41.94-1.62.67-2.55-.15-.52-.38-1.18.09-1.61.55-.5,1.35-.35,1.98-.14.75.25,1.45.59,2.22.76.75.17,1.53.26,2.3.29,1.9.08,3.81-.09,5.71-.18,1.82-.08,3.63-.17,5.45-.25-1.15,1.81-2.51,3.49-3.87,5.16Zm36.03-31.38c-1.11,4.27-2.41,8.55-4.78,12.3-2.25,3.56-5.29,6.66-8.48,9.38-3.04,2.59-6.4,4.83-9.98,6.6-3.85,1.9-7.98,3.24-12.23,3.86,1.06-1.28,2.12-2.57,3.08-3.92.74.41,1.56.79,2.41.72.88-.07,1.48-.65,1.94-1.35.53-.79,1.05-1.51,1.77-2.15.72-.63,1.53-1.14,2.36-1.59.83-.45,1.69-.84,2.56-1.2.85-.36,1.75-.71,2.38-1.41.57-.62.87-1.43.7-2.27-.09-.45-.4-.97-.02-1.36.35-.36.94-.56,1.37-.79,2.34-1.21,4.68-2.43,7.02-3.64.32-.17.25-.59,0-.77-1.12-.79-2.51-.82-3.84-.84-1.13-.02-2.54-.08-3.36-.98,1.16-2.4,3.19-4.17,5.32-5.72,1.11-.81,2.25-1.58,3.35-2.4,1.11-.82,2.23-1.66,2.71-3,.06-.17-.04-.42-.2-.5-.61-.29-1.18-.63-1.73-1.02.98-1.76,2.24-3.32,3.51-4.88.32-.39-.07-.93-.54-.7-4.01,1.99-8.06,3.93-12.03,5.99-3.56,1.85-7.03,3.93-10.02,6.63-.07.02-.14.05-.19.1-.04.04-.09.08-.14.12-.09-.71-.21-1.41-.37-2.1,0,0,.01,0,.02-.02,2.77-3.38,6.83-5.33,10.64-7.27,4.26-2.17,8.58-4.25,12.91-6.28,2.23-1.05,4.5-2.04,6.83-2.84-.84,4.45-1.82,8.88-2.96,13.26Z"/><path class="cls-5" d="m82.44,30.54c-.2-.05-.36.03-.46.17-1.79.21-3.39,1.41-4.11,3.07-.81,1.87-.62,4.65.96,6.1,1.45,1.34,3.77,1.18,5.32.1,1.57-1.1,2.54-3.03,2.3-4.95-.27-2.14-1.92-3.98-4.01-4.49Zm1.82,8.2c-1.11,1.11-2.94,1.65-4.37.83-1.53-.87-1.84-3.23-1.43-4.79.49-1.85,2.17-3.23,4.11-3.22.03,0,.06-.01.09-.02,1.31.48,2.36,1.57,2.76,2.92.46,1.52-.05,3.17-1.16,4.28Z"/><path class="cls-5" d="m81.28,33.44c-.19.08-.33.25-.32.45-.44.35-.78.83-.92,1.39-.21.87.07,1.86.79,2.43.16.12.33.22.51.29.03.02.05.05.08.07.1.08.24.08.36.03.15.01.3,0,.45-.03.46-.1.82-.45,1.08-.83.54-.78.73-1.85.34-2.72-.38-.86-1.46-1.45-2.37-1.08Zm1.44,3.05c-.21.4-.52.76-.93.7-.01-.02-.02-.03-.03-.04,0,0,0-.01,0-.02,0-.02-.02-.04-.02-.06-.02-.05-.03-.11-.04-.16.01.08,0-.07,0-.09,0-.06,0-.12,0-.17,0-.05,0-.11.01-.16,0,0,0-.01,0-.02,0-.04.01-.07.02-.11.14-.63.38-1.26.16-1.91-.01-.03-.03-.05-.04-.08.06-.03.12-.06.18-.08.02,0,.04-.02.06-.03.04.01.08.02.12.04.19.07.42.26.53.44.34.53.24,1.23-.04,1.76Z"/></g></g></g></svg>